<svg width="100" height="100" viewBox="0 0 100 100" fill="none" xmlns="http://www.w3.org/2000/svg">
  <circle cx="50" cy="50" r="45" fill="#2C6ECB" />
  <path d="M50 15 C30 15 15 30 15 50 C15 70 30 85 50 85 C70 85 85 70 85 50 C85 30 70 15 50 15 Z" fill="#2C6ECB" stroke="white" stroke-width="2" />
  <path d="M30 70 L30 50 L40 50 L40 70 Z" fill="white" />
  <path d="M45 70 L45 40 L55 40 L55 70 Z" fill="white" />
  <path d="M60 70 L60 30 L70 30 L70 70 Z" fill="white" />
  <path d="M20 75 L80 75 L80 80 L20 80 Z" fill="white" />
  <path d="M25 40 L75 40 L50 25 Z" fill="#4CAF50" />
</svg> 